<?xml version="1.0" encoding="utf-8"?>
<!-- Generator: Adobe Illustrator 16.0.0, SVG Export Plug-In . SVG Version: 6.00 Build 0)  -->
<!DOCTYPE svg PUBLIC "-//W3C//DTD SVG 1.1//EN" "http://www.w3.org/Graphics/SVG/1.1/DTD/svg11.dtd">
<svg version="1.1" id="Layer_1" xmlns="http://www.w3.org/2000/svg" xmlns:xlink="http://www.w3.org/1999/xlink" x="0px" y="0px"
	 width="267.866px" height="80.374px" viewBox="21.47 16.173 267.866 80.374" enable-background="new 21.47 16.173 267.866 80.374"
	 xml:space="preserve">
<path d="M125.823,56.743c0.291-3.436,2.923-6.723,7.746-6.723c3.945,0,6.796,3.067,6.722,6.723H125.823z M100.787,69.751
	c-5.479,0-8.767-3.653-8.767-8.987c0-5.337,3.288-8.988,8.767-8.988c5.483,0,8.771,3.651,8.771,8.988
	C109.558,66.097,106.27,69.751,100.787,69.751 M65.126,53.382c0-2.119,2.192-2.923,4.021-2.923c2.63,0,4.749,1.024,6.356,2.996
	l6.433-6.363v14.766C77.381,55.509,65.126,57.667,65.126,53.382 M67.684,71.066c-3.29,0-5.7-1.39-7.746-3.873l-4.346,4.821V60.47
	c0-0.316-0.003-0.628-0.009-0.938c4.32,6.757,17.068,4.24,17.068,8.977C72.653,70.408,70.167,71.066,67.684,71.066 M45.51,65.293
	c0,4.386-4.02,6.65-8.33,6.65c-2.411,0-5.189-1.242-5.189-3.873c0-4.823,7.456-5.115,10.817-5.115h2.702V65.293z M202.135,51.774
	v-8.771h-9.646V32.483h-10.96v10.521h-7.019v0.019c-2.046-0.627-4.146-0.895-6.063-0.895c-8.314,0-15.362,4.206-18.286,11.181
	c-2.237-6.975-7.809-11.181-15.569-11.181c-7.023,0-13.145,3.004-16.637,8.141c-2.923-5.037-8.18-8.141-14.899-8.141
	c-4.971,0-9.206,2.995-10.889,5.554H92.02v-4.678H81.935v3.514c-3.299-3.278-8.319-4.39-12.861-4.39
	c-6.539,0-13.074,2.811-14.583,9.121c-1.823-5.945-6.188-9.121-15.12-9.121c-5.771,0-11.618,1.899-15.637,5.698l5.846,5.994
	c2.338-2.633,5.335-4.239,8.914-4.239c3.801,0,7.018,2.483,7.018,6.356c-9.135,0-24.041,0.219-24.041,12.496
	c0,7.16,5.989,10.962,12.641,10.962c4.458,0,8.843-1.535,11.254-5.334h0.146v4.457h10.082v-2.085
	c3.359,2.159,7.67,2.962,11.652,2.962c5.576,0,11.781-1.421,14.689-5.76v21.544h10.962V74.72h0.146
	c2.483,3.435,6.724,4.677,11.253,4.677c6.165,0,10.854-3.391,13.566-8.275c3.477,5.219,9.644,8.275,16.729,8.275
	c5.699,0,11.473-2.558,14.98-7.016l-7.672-5.627c-1.828,2.485-4.239,4.313-7.82,4.313c-4.238,0-7.38-2.705-8.257-6.87h23.182
	c1.586,9.348,9.637,15.2,19.442,15.2c4.165,0,9.208-1.242,12.643-4.75l-7.233-7.6c-1.243,1.461-2.997,2.703-5.408,2.703
	c-5.48,0-8.77-3.653-8.77-8.987c0-5.337,3.288-8.988,8.77-8.988c2.267,0,4.312,1.17,5.408,2.703l2.572-2.703h5.102v16.88
	c0,7.746,5.625,10.742,12.934,10.742c2.557,0,5.263-0.22,7.673-1.098v-9.134c-0.949,0.877-3.288,1.023-4.456,1.023
	c-4.752,0-5.189-2.776-5.189-6.577V51.774H202.135z M208.362,75.01h0.478c0.247,0,0.646-0.009,0.646-0.428
	c0-0.408-0.398-0.429-0.646-0.429h-0.478V75.01z M207.391,73.357h1.276c0.918,0,1.794,0.215,1.794,1.174
	c0,0.716-0.467,1.164-0.897,1.226l1.022,1.583h-1.072l-0.908-1.531h-0.233v1.531h-0.98L207.391,73.357L207.391,73.357z
	 M208.849,78.328c1.583,0,2.816-1.295,2.816-2.938s-1.233-2.939-2.816-2.939c-1.58,0-2.817,1.297-2.817,2.939
	C206.032,77.033,207.269,78.328,208.849,78.328 M208.849,71.592c2.094,0,3.799,1.705,3.799,3.798c0,2.094-1.705,3.799-3.799,3.799
	c-2.091,0-3.795-1.705-3.795-3.799C205.054,73.297,206.759,71.592,208.849,71.592"/>
<path d="M125.823,56.743c0.291-3.436,2.923-6.723,7.746-6.723c3.945,0,6.796,3.067,6.722,6.723H125.823z M100.787,69.751
	c-5.479,0-8.767-3.653-8.767-8.987c0-5.337,3.288-8.988,8.767-8.988c5.483,0,8.771,3.651,8.771,8.988
	C109.558,66.097,106.27,69.751,100.787,69.751 M65.126,53.382c0-2.119,2.192-2.923,4.021-2.923c2.63,0,4.749,1.024,6.356,2.996
	l6.433-6.363v14.766C77.381,55.509,65.126,57.667,65.126,53.382 M67.684,71.066c-3.29,0-5.7-1.39-7.746-3.873l-4.346,4.821V60.47
	c0-0.316-0.003-0.628-0.009-0.938c4.32,6.757,17.068,4.24,17.068,8.977C72.653,70.408,70.167,71.066,67.684,71.066 M45.51,65.293
	c0,4.386-4.02,6.65-8.33,6.65c-2.411,0-5.189-1.242-5.189-3.873c0-4.823,7.456-5.115,10.817-5.115h2.702V65.293z M202.135,51.774
	v-8.771h-9.646V32.483h-10.96v10.521h-7.019v0.019c-2.046-0.627-4.146-0.895-6.063-0.895c-8.314,0-15.362,4.206-18.286,11.181
	c-2.237-6.975-7.809-11.181-15.569-11.181c-7.023,0-13.145,3.004-16.637,8.141c-2.923-5.037-8.18-8.141-14.899-8.141
	c-4.971,0-9.206,2.995-10.889,5.554H92.02v-4.678H81.935v3.514c-3.299-3.278-8.319-4.39-12.861-4.39
	c-6.539,0-13.074,2.811-14.583,9.121c-1.823-5.945-6.188-9.121-15.12-9.121c-5.771,0-11.618,1.899-15.637,5.698l5.846,5.994
	c2.338-2.633,5.335-4.239,8.914-4.239c3.801,0,7.018,2.483,7.018,6.356c-9.135,0-24.041,0.219-24.041,12.496
	c0,7.16,5.989,10.962,12.641,10.962c4.458,0,8.843-1.535,11.254-5.334h0.146v4.457h10.082v-2.085
	c3.359,2.159,7.67,2.962,11.652,2.962c5.576,0,11.781-1.421,14.689-5.76v21.544h10.962V74.72h0.146
	c2.483,3.435,6.724,4.677,11.253,4.677c6.165,0,10.854-3.391,13.566-8.275c3.477,5.219,9.644,8.275,16.729,8.275
	c5.699,0,11.473-2.558,14.98-7.016l-7.672-5.627c-1.828,2.485-4.239,4.313-7.82,4.313c-4.238,0-7.38-2.705-8.257-6.87h23.182
	c1.586,9.348,9.637,15.2,19.442,15.2c4.165,0,9.208-1.242,12.643-4.75l-7.233-7.6c-1.243,1.461-2.997,2.703-5.408,2.703
	c-5.48,0-8.77-3.653-8.77-8.987c0-5.337,3.288-8.988,8.77-8.988c2.267,0,4.312,1.17,5.408,2.703l2.572-2.703h5.102v16.88
	c0,7.746,5.625,10.742,12.934,10.742c2.557,0,5.263-0.22,7.673-1.098v-9.134c-0.949,0.877-3.288,1.023-4.456,1.023
	c-4.752,0-5.189-2.776-5.189-6.577V51.774H202.135z M208.362,75.01h0.478c0.247,0,0.646-0.009,0.646-0.428
	c0-0.408-0.398-0.429-0.646-0.429h-0.478V75.01z M207.391,73.357h1.276c0.918,0,1.794,0.215,1.794,1.174
	c0,0.716-0.467,1.164-0.897,1.226l1.022,1.583h-1.072l-0.908-1.531h-0.233v1.531h-0.98L207.391,73.357L207.391,73.357z
	 M208.849,78.328c1.583,0,2.816-1.295,2.816-2.938s-1.233-2.939-2.816-2.939c-1.58,0-2.817,1.297-2.817,2.939
	C206.032,77.033,207.269,78.328,208.849,78.328 M208.849,71.592c2.094,0,3.799,1.705,3.799,3.798c0,2.094-1.705,3.799-3.799,3.799
	c-2.091,0-3.795-1.705-3.795-3.799C205.054,73.297,206.759,71.592,208.849,71.592"/>
<path fill="#95D600" d="M262.542,42.562v9.112c0,1.977-1.616,3.593-3.593,3.593H252.8l-6.673,6.674v-1.056v-5.618h-1.176
	c-1.976,0-3.592-1.616-3.592-3.593v-9.112c0-1.978,1.616-3.592,3.592-3.592h13.997C260.925,38.97,262.542,40.585,262.542,42.562
	 M275.908,61.302c0,2.94-2.405,5.348-5.347,5.348h-19.689l-11.313,11.313V66.648h-6.22c-2.94,0-5.348-2.406-5.348-5.348V32.935
	c0-2.942,2.406-5.349,5.348-5.349h37.222c2.94,0,5.347,2.405,5.347,5.349V61.302L275.908,61.302z M278.816,16.173h-53.729
	c-5.788,0-10.521,4.733-10.521,10.521v40.848c0,5.787,4.733,10.522,10.521,10.522h6.451v18.482l18.485-18.482h28.793
	c5.786,0,10.521-4.735,10.521-10.522V26.693C289.336,20.906,284.602,16.173,278.816,16.173"/>
</svg>
